<svg width="32" height="32" viewBox="0 0 32 32" fill="none" xmlns="http://www.w3.org/2000/svg">
  <circle cx="16" cy="16" r="14" fill="#FF6B6B"/>
  <path d="M10 16C10 14.8954 10.8954 14 12 14C13.1046 14 14 14.8954 14 16V20C14 21.1046 13.1046 22 12 22C10.8954 22 10 21.1046 10 20V16Z" fill="white"/>
  <path d="M18 16C18 14.8954 18.8954 14 20 14C21.1046 14 22 14.8954 22 16V20C22 21.1046 21.1046 22 20 22C18.8954 22 18 21.1046 18 20V16Z" fill="white"/>
  <path d="M12 12C13.1046 12 14 11.1046 14 10C14 8.89543 13.1046 8 12 8C10.8954 8 10 8.89543 10 10C10 11.1046 10.8954 12 12 12Z" fill="white"/>
  <path d="M20 12C21.1046 12 22 11.1046 22 10C22 8.89543 21.1046 8 20 8C18.8954 8 18 8.89543 18 10C18 11.1046 18.8954 12 20 12Z" fill="white"/>
</svg> 